<svg width="15" height="15" viewBox="0 0 15 15" fill="none" xmlns="http://www.w3.org/2000/svg">
<g clip-path="url(#clip0_1500_265)">
<path d="M5.06263 13.5889C10.512 13.5889 13.4934 9.07307 13.4934 5.15811C13.4934 5.03116 13.4906 4.90139 13.485 4.77443C14.065 4.355 14.5655 3.83548 14.963 3.24028C14.4229 3.4806 13.8494 3.63755 13.2621 3.70577C13.8804 3.33513 14.3434 2.75288 14.5652 2.06695C13.9835 2.41168 13.3474 2.65486 12.6841 2.78607C12.2371 2.31117 11.6462 1.99674 11.0026 1.89138C10.3591 1.78601 9.69872 1.89559 9.12368 2.20316C8.54864 2.51074 8.09093 2.99918 7.82133 3.59297C7.55173 4.18676 7.48525 4.85283 7.63216 5.48819C6.45431 5.42909 5.30204 5.12311 4.25003 4.59011C3.19802 4.05711 2.26976 3.30897 1.52543 2.3942C1.14713 3.04645 1.03137 3.81826 1.20168 4.55279C1.37198 5.28732 1.81558 5.92944 2.44232 6.34865C1.9718 6.33371 1.5116 6.20703 1.09972 5.97908V6.01575C1.0993 6.70023 1.33593 7.36374 1.76939 7.89348C2.20285 8.42322 2.80639 8.7865 3.47741 8.92157C3.04155 9.04082 2.5841 9.0582 2.14045 8.97235C2.3298 9.56101 2.69821 10.0759 3.19425 10.4451C3.69029 10.8143 4.28923 11.0194 4.90747 11.0318C3.85788 11.8563 2.56134 12.3035 1.22667 12.3013C0.989978 12.301 0.753517 12.2865 0.518555 12.2579C1.87444 13.1278 3.4517 13.5898 5.06263 13.5889Z" fill="white"/>
</g>
<defs>
<clipPath id="clip0_1500_265">
<rect width="14.4444" height="14.4444" fill="white" transform="translate(0.518555 0.498535)"/>
</clipPath>
</defs>
</svg>
